HIERARCHY
ROOT hip
{
  OFFSET 0 0 0
  CHANNELS 6 Xposition Yposition Zposition Zrotation Yrotation Xrotation
  JOINT abdomen
  {
    OFFSET 0 20.6881 -0.73152
    CHANNELS 3 Zrotation Xrotation Yrotation
    JOINT chest
    {
      OFFSET 0 11.7043 -0.48768
      CHANNELS 3 Zrotation Xrotation Yrotation
      JOINT neck
      {
        OFFSET 0 22.1894 -2.19456
        CHANNELS 3 Zrotation Xrotation Yrotation
        JOINT head
        {
          OFFSET -0.24384 7.07133 1.2192
          CHANNELS 3 Zrotation Xrotation Yrotation
          JOINT leftEye
          {
            OFFSET 4.14528 8.04674 8.04672
            CHANNELS 3 Zrotation Xrotation Yrotation
            End Site
            {
              OFFSET 1 0 0
            }
          }
          JOINT rightEye
          {
            OFFSET -3.6576 8.04674 8.04672
            CHANNELS 3 Zrotation Xrotation Yrotation
            End Site
            {
              OFFSET 1 0 0
            }
          }
        }
      }
      JOINT rCollar
      {
        OFFSET -2.68224 19.2634 -4.8768
        CHANNELS 3 Zrotation Xrotation Yrotation
        JOINT rShldr
        {
          OFFSET -8.77824 -1.95073 1.46304
          CHANNELS 3 Zrotation Xrotation Yrotation
          JOINT rForeArm
          {
            OFFSET -28.1742 -1.7115 0.48768
            CHANNELS 3 Zrotation Xrotation Yrotation
            JOINT rHand
            {
              OFFSET -22.5879 0.773209 7.07136
              CHANNELS 3 Zrotation Xrotation Yrotation
              JOINT rThumb1
              {
                OFFSET -1.2192 -0.487915 3.41376
                CHANNELS 3 Zrotation Xrotation Yrotation
                JOINT rThumb2
                {
                  OFFSET -3.37035 -0.52449 3.41376
                  CHANNELS 3 Zrotation Xrotation Yrotation
                  End Site
                  {
                    OFFSET -1.78271 -1.18214 1.43049
                  }
                }
              }
              JOINT rIndex1
              {
                OFFSET -7.75947 0.938293 5.60832
                CHANNELS 3 Zrotation Xrotation Yrotation
                JOINT rIndex2
                {
                  OFFSET -2.54057 -0.884171 1.56538
                  CHANNELS 3 Zrotation Xrotation Yrotation
                  End Site
                  {
                    OFFSET -1.62519 -0.234802 1.16502
                  }
                }
              }
              JOINT rMid1
              {
                OFFSET -8.24714 1.18213 3.41376
                CHANNELS 3 Zrotation Xrotation Yrotation
                JOINT rMid2
                {
                  OFFSET -3.10165 -0.590103 1.0647
                  CHANNELS 3 Zrotation Xrotation Yrotation
                  End Site
                  {
                    OFFSET -2.48547 -0.328903 0.83742
                  }
                }
              }
              JOINT rRing1
              {
                OFFSET -8.82822 0.546677 1.51678
                CHANNELS 3 Zrotation Xrotation Yrotation
                JOINT rRing2
                {
                  OFFSET -2.60934 -0.819778 -0.0198488
                  CHANNELS 3 Zrotation Xrotation Yrotation
                  End Site
                  {
                    OFFSET -2.33842 -0.294052 0.168128
                  }
                }
              }
              JOINT rPinky1
              {
                OFFSET -8.27202 -0.0477905 -0.4584
                CHANNELS 3 Zrotation Xrotation Yrotation
                JOINT rPinky2
                {
                  OFFSET -1.82734 -0.647385 -0.700984
                  CHANNELS 3 Zrotation Xrotation Yrotation
                  End Site
                  {
                    OFFSET -1.69225 -0.51767 -0.607171
                  }
                }
              }
            }
          }
        }
      }
      JOINT lCollar
      {
        OFFSET 2.68224 19.2634 -4.8768
        CHANNELS 3 Zrotation Xrotation Yrotation
        JOINT lShldr
        {
          OFFSET 8.77824 -1.95073 1.46304
          CHANNELS 3 Zrotation Xrotation Yrotation
          JOINT lForeArm
          {
            OFFSET 28.1742 -1.7115 0.48768
            CHANNELS 3 Zrotation Xrotation Yrotation
            JOINT lHand
            {
              OFFSET 22.5879 0.773209 7.07136
              CHANNELS 3 Zrotation Xrotation Yrotation
              JOINT lThumb1
              {
                OFFSET 1.2192 -0.487915 3.41376
                CHANNELS 3 Zrotation Xrotation Yrotation
                JOINT lThumb2
                {
                  OFFSET 3.37035 -0.52449 3.41376
                  CHANNELS 3 Zrotation Xrotation Yrotation
                  End Site
                  {
                    OFFSET 1.78271 -1.18214 1.43049
                  }
                }
              }
              JOINT lIndex1
              {
                OFFSET 7.75947 0.938293 5.60832
                CHANNELS 3 Zrotation Xrotation Yrotation
                JOINT lIndex2
                {
                  OFFSET 2.54057 -0.884171 1.56538
                  CHANNELS 3 Zrotation Xrotation Yrotation
                  End Site
                  {
                    OFFSET 1.62519 -0.234802 1.16502
                  }
                }
              }
              JOINT lMid1
              {
                OFFSET 8.24714 1.18213 3.41376
                CHANNELS 3 Zrotation Xrotation Yrotation
                JOINT lMid2
                {
                  OFFSET 3.10165 -0.590103 1.0647
                  CHANNELS 3 Zrotation Xrotation Yrotation
                  End Site
                  {
                    OFFSET 2.48547 -0.328903 0.83742
                  }
                }
              }
              JOINT lRing1
              {
                OFFSET 8.82822 0.546677 1.51678
                CHANNELS 3 Zrotation Xrotation Yrotation
                JOINT lRing2
                {
                  OFFSET 2.60934 -0.819778 -0.0198488
                  CHANNELS 3 Zrotation Xrotation Yrotation
                  End Site
                  {
                    OFFSET 2.33842 -0.294052 0.168128
                  }
                }
              }
              JOINT lPinky1
              {
                OFFSET 8.27202 -0.0477905 -0.4584
                CHANNELS 3 Zrotation Xrotation Yrotation
                JOINT lPinky2
                {
                  OFFSET 1.82734 -0.647385 -0.700984
                  CHANNELS 3 Zrotation Xrotation Yrotation
                  End Site
                  {
                    OFFSET 1.69225 -0.51767 -0.607171
                  }
                }
              }
            }
          }
        }
      }
    }
  }
  JOINT rButtock
  {
    OFFSET -8.77824 4.35084 1.2192
    CHANNELS 3 Zrotation Xrotation Yrotation
    JOINT rThigh
    {
      OFFSET 0 -1.70687 -2.19456
      CHANNELS 3 Zrotation Xrotation Yrotation
      JOINT rShin
      {
        OFFSET 0 -36.8199 0.73152
        CHANNELS 3 Zrotation Xrotation Yrotation
        JOINT rFoot
        {
          OFFSET 0.73152 -45.1104 -5.12064
          CHANNELS 3 Zrotation Xrotation Yrotation
          End Site
          {
            OFFSET -1.1221 -3.69964 12.103
          }
        }
      }
    }
  }
  JOINT lButtock
  {
    OFFSET 8.77824 4.35084 1.2192
    CHANNELS 3 Zrotation Xrotation Yrotation
    JOINT lThigh
    {
      OFFSET 0 -1.70687 -2.19456
      CHANNELS 3 Zrotation Xrotation Yrotation
      JOINT lShin
      {
        OFFSET 0 -36.8199 0.73152
        CHANNELS 3 Zrotation Xrotation Yrotation
        JOINT lFoot
        {
          OFFSET -0.73152 -45.1104 -5.12064
          CHANNELS 3 Zrotation Xrotation Yrotation
          End Site
          {
            OFFSET 1.1221 -3.69964 12.103
          }
        }
      }
    }
  }
}
MOTION
Frames:	8
Frame Time:	0.00833333
7.50615 152.583 -13.1498 -181.098 -20.6394 -165.089 -4.80124 10.1711 -5.57299 4.23248 -3.5101 -1.70269 -9.70135 -2.75587 2.32988 2.68601 23.8876 1.57028 -0.0 0.0 0.0 -0.0 0.0 0.0 2.7005e-13 7.57416e-14 -8.25944e-13 64.209 19.9229 15.9068 -28.3009 -32.8965 71.8996 -0.145031 -10.7925 -1.53517 2.35416e-09 -1.92296e-07 4.94809e-09 4.03089e-09 -3.32072e-07 8.56626e-09 2.35417e-09 -1.92296e-07 4.94808e-09 7.73091 5.47488 0.417314 2.35416e-09 -1.92296e-07 4.94809e-09 2.90554 0.965183 0.102902 2.35417e-09 -1.92296e-07 4.94808e-09 10.2786 0.731801 0.0259123 2.35416e-09 -1.92296e-07 4.94809e-09 2.22167 -0.733487 -0.20892 2.69904e-13 7.57314e-14 -8.26161e-13 -38.5539 29.7293 -62.3104 27.2546 -27.2287 -62.8386 0.283759 -14.9877 2.15632 1.52505e-09 -1.65014e-08 -9.74783e-10 2.64213e-09 -2.85768e-08 -1.65279e-09 1.52505e-09 -1.65014e-08 -9.7478e-10 -7.73091 5.47488 -0.417314 1.52505e-09 -1.65014e-08 -9.7478e-10 -2.90554 0.965183 -0.102902 1.52504e-09 -1.65014e-08 -9.74785e-10 -10.2786 0.731801 -0.0259123 1.52506e-09 -1.65014e-08 -9.74795e-10 -2.22167 -0.733487 0.20892 -2.03217e-16 0.0 -3.88251e-19 -2.59953 -26.648 -2.2674 -0.0388432 19.1446 0.25589 -0.937488 3.03068 -24.8772 2.03217e-16 0.0 3.88251e-19 3.6285 -62.863 19.001 1.98192 69.1277 -2.2518 -1.98923 -19.9761 -5.24859
7.36744 152.791 -13.2815 -181.107 -20.9183 -165.238 -4.96807 10.3042 -5.96006 4.24568 -3.54984 -1.8122 -9.66296 -2.84992 2.28732 2.67865 23.7266 1.56085 -0.0 0.0 0.0 -0.0 0.0 0.0 3.22782e-13 -7.12869e-14 -8.01081e-13 64.3836 20.0471 15.8441 -28.2705 -32.5923 71.408 -0.145372 -10.8051 -1.53701 2.88391e-09 -1.46713e-07 3.83796e-09 4.95464e-09 -2.53421e-07 6.65312e-09 2.88392e-09 -1.46713e-07 3.83795e-09 7.73091 5.47488 0.417314 2.88391e-09 -1.46713e-07 3.83795e-09 2.90554 0.965183 0.102902 2.88392e-09 -1.46713e-07 3.83795e-09 10.2786 0.731801 0.0259123 2.88391e-09 -1.46713e-07 3.83796e-09 2.22167 -0.733487 -0.20892 3.22746e-13 -7.12916e-14 -8.01283e-13 -38.8367 30.0733 -61.8923 27.2444 -27.1915 -62.7793 0.279554 -14.8806 2.14017 1.18798e-09 -1.44177e-08 -7.99544e-10 2.05836e-09 -2.49659e-08 -1.35202e-09 1.18797e-09 -1.44177e-08 -7.9954e-10 -7.73091 5.47488 -0.417314 1.18798e-09 -1.44177e-08 -7.99541e-10 -2.90554 0.965183 -0.102902 1.18797e-09 -1.44177e-08 -7.99546e-10 -10.2786 0.731801 -0.0259123 1.18799e-09 -1.44177e-08 -7.99555e-10 -2.22167 -0.733487 0.20892 -2.03217e-16 0.0 -3.88251e-19 -2.9527 -26.5464 -2.80449 -0.0468438 19.9278 0.274415 -1.35087 2.26168 -24.7262 2.03217e-16 0.0 3.88251e-19 2.07332 -62.1039 17.3944 1.8793 68.3942 -2.16092 -1.79317 -20.1384 -4.83063
7.26835 152.985 -13.3128 -181.167 -20.7537 -165.025 -5.11143 10.3986 -6.23257 4.23728 -3.59331 -1.88827 -9.65465 -2.93329 2.22572 2.72337 23.4808 1.53483 -0.0 0.0 0.0 -0.0 0.0 0.0 3.20409e-13 -1.7175e-13 -6.71097e-13 64.5687 20.1419 15.7927 -28.2375 -32.2935 70.927 -0.145909 -10.8249 -1.53989 2.8892e-09 -1.0299e-07 2.56541e-09 4.97345e-09 -1.77984e-07 4.45519e-09 2.88921e-09 -1.0299e-07 2.5654e-09 7.73091 5.47488 0.417314 2.8892e-09 -1.0299e-07 2.5654e-09 2.90554 0.965183 0.102902 2.88921e-09 -1.0299e-07 2.5654e-09 10.2786 0.731801 0.0259123 2.8892e-09 -1.0299e-07 2.56541e-09 2.22167 -0.733487 -0.20892 3.20444e-13 -1.7175e-13 -6.71296e-13 -39.0961 30.3992 -61.5135 27.229 -27.1349 -62.6882 0.275117 -14.7662 2.12294 7.42584e-10 -1.03763e-08 -5.84637e-10 1.28726e-09 -1.79721e-08 -9.86533e-10 7.42579e-10 -1.03763e-08 -5.84634e-10 -7.73091 5.47488 -0.417314 7.42585e-10 -1.03763e-08 -5.84634e-10 -2.90554 0.965183 -0.102902 7.42579e-10 -1.03763e-08 -5.84639e-10 -10.2786 0.731801 -0.0259123 7.42592e-10 -1.03763e-08 -5.84646e-10 -2.22167 -0.733487 0.20892 -2.03217e-16 0.0 -3.88251e-19 -3.22443 -26.5551 -3.30707 -0.0570435 20.7746 0.288627 -1.59752 1.81518 -24.332 2.03217e-16 0.0 3.88251e-19 0.918108 -61.407 16.1729 1.78785 67.6942 -2.07984 -1.61203 -20.2734 -4.45027
7.18469 153.196 -13.3629 -181.11 -20.4838 -164.96 -5.2098 10.4424 -6.35272 4.1934 -3.64072 -1.91979 -9.69769 -3.00811 2.13551 2.85637 23.1116 1.48687 -0.0 0.0 0.0 -0.0 0.0 0.0 2.23962e-13 -2.15933e-13 -3.42043e-13 64.766 20.1951 15.7652 -28.2026 -32.0018 70.4571 -0.146343 -10.84 -1.5421 2.04896e-09 -5.69395e-08 7.51437e-10 3.53552e-09 -9.85582e-08 1.31528e-09 2.04896e-09 -5.69395e-08 7.51431e-10 7.73091 5.47488 0.417314 2.04896e-09 -5.69395e-08 7.51432e-10 2.90554 0.965183 0.102902 2.04896e-09 -5.69395e-08 7.51432e-10 10.2786 0.731801 0.0259123 2.04895e-09 -5.69395e-08 7.51437e-10 2.22167 -0.733487 -0.20892 2.24011e-13 -2.15927e-13 -3.4226e-13 -39.3091 30.6962 -61.2009 27.2053 -27.0492 -62.5502 0.270593 -14.6472 2.10506 3.22802e-11 -2.25815e-09 -2.58978e-10 5.7823e-11 -3.93081e-09 -4.37012e-10 3.2275e-11 -2.25815e-09 -2.58976e-10 -7.73091 5.47488 -0.417314 3.22809e-11 -2.25816e-09 -2.58975e-10 -2.90554 0.965183 -0.102902 3.22738e-11 -2.25816e-09 -2.5898e-10 -10.2786 0.731801 -0.0259123 3.22877e-11 -2.25815e-09 -2.58986e-10 -2.22167 -0.733487 0.20892 -2.03217e-16 0.0 -3.88251e-19 -3.38425 -26.7131 -3.7855 -0.0699194 21.6977 0.296123 -1.61861 1.82597 -23.6418 2.03217e-16 0.0 3.88251e-19 0.23475 -60.8223 15.3956 1.70822 67.0423 -2.00879 -1.45485 -20.3764 -4.12527
7.122 153.408 -13.4467 -180.889 -20.3159 -165.085 -5.27769 10.4663 -6.38713 4.12941 -3.69145 -1.92634 -9.77514 -3.07525 2.02503 3.04349 22.6517 1.42423 -0.0 0.0 0.0 -0.0 0.0 0.0 6.02182e-14 -2.29404e-13 1.48467e-13 64.9735 20.2227 15.7614 -28.1657 -31.7136 69.9929 -0.146634 -10.8494 -1.54348 5.8669e-10 -3.32609e-09 -1.6109e-09 1.02709e-09 -6.07763e-09 -2.77687e-09 5.86696e-10 -3.32608e-09 -1.61091e-09 7.73091 5.47488 0.417314 5.8669e-10 -3.32608e-09 -1.6109e-09 2.90554 0.965183 0.102902 5.86696e-10 -3.32608e-09 -1.6109e-09 10.2786 0.731801 0.0259123 5.86683e-10 -3.32607e-09 -1.6109e-09 2.22167 -0.733487 -0.20892 6.02523e-14 -2.29391e-13 1.48219e-13 -39.5077 30.9699 -60.9218 27.1754 -26.9418 -62.3789 0.266289 -14.5329 2.0879 -9.1982e-10 9.21069e-09 1.87881e-10 -1.59018e-09 1.59054e-08 3.1584e-10 -9.19825e-10 9.21069e-09 1.87882e-10 -7.73091 5.47488 -0.417314 -9.19819e-10 9.21068e-09 1.87885e-10 -2.90554 0.965183 -0.102902 -9.19828e-10 9.21069e-09 1.8788e-10 -10.2786 0.731801 -0.0259123 -9.19812e-10 9.21069e-09 1.87876e-10 -2.22167 -0.733487 0.20892 -2.03217e-16 0.0 -3.88251e-19 -3.47287 -26.9533 -4.2357 -0.0848282 22.6664 0.299455 -1.49782 2.14533 -22.7967 2.03217e-16 0.0 3.88251e-19 -0.179168 -60.3021 14.8646 1.63646 66.4172 -1.94459 -1.31057 -20.4589 -3.82982
7.04606 153.613 -13.5316 -180.817 -20.2843 -165.245 -5.35594 10.4752 -6.37022 4.06524 -3.7455 -1.91821 -9.85192 -3.12925 1.90953 3.22718 22.1639 1.35429 -0.0 0.0 0.0 -0.0 0.0 0.0 -1.0322e-13 -2.14845e-13 6.17261e-13 65.188 20.2401 15.7528 -28.1267 -31.4287 69.5346 -0.147495 -10.8806 -1.54802 -9.42807e-10 4.45035e-08 -3.66362e-09 -1.59996e-09 7.64512e-08 -6.33488e-09 -9.428e-10 4.45035e-08 -3.66363e-09 7.73091 5.47488 0.417314 -9.42805e-10 4.45035e-08 -3.66362e-09 2.90554 0.965183 0.102902 -9.42802e-10 4.45035e-08 -3.66362e-09 10.2786 0.731801 0.0259123 -9.42814e-10 4.45035e-08 -3.66362e-09 2.22167 -0.733487 -0.20892 -1.03217e-13 -2.14828e-13 6.1698e-13 -39.7167 31.2426 -60.6432 27.1432 -26.8282 -62.1989 0.261692 -14.4103 2.06951 -1.77873e-09 1.98067e-08 5.88166e-10 -3.07682e-09 3.42306e-08 9.89074e-10 -1.77874e-09 1.98067e-08 5.88166e-10 -7.73091 5.47488 -0.417314 -1.77873e-09 1.98067e-08 5.88169e-10 -2.90554 0.965183 -0.102902 -1.77874e-09 1.98067e-08 5.88166e-10 -10.2786 0.731801 -0.0259123 -1.77872e-09 1.98067e-08 5.88162e-10 -2.22167 -0.733487 0.20892 -2.03217e-16 0.0 -3.88251e-19 -3.53915 -27.2394 -4.64243 -0.10053 23.675 0.301965 -1.32655 2.58975 -21.8008 2.03217e-16 0.0 3.88251e-19 -0.458843 -59.8018 14.4826 1.56981 65.8024 -1.88478 -1.16999 -20.523 -3.54424
6.96125 153.841 -13.6148 -180.804 -20.2594 -165.431 -5.48527 10.4741 -6.33644 4.02083 -3.80289 -1.90573 -9.89286 -3.16463 1.80425 3.35043 21.7106 1.28421 -0.0 0.0 0.0 -0.0 0.0 0.0 -1.98752e-13 -1.7494e-13 8.81163e-13 65.4067 20.2628 15.711 -28.0852 -31.1466 69.0825 -0.149659 -10.961 -1.55974 -1.98474e-09 7.32023e-08 -4.54874e-09 -3.39373e-09 1.26022e-07 -7.87237e-09 -1.98473e-09 7.32023e-08 -4.54875e-09 7.73091 5.47488 0.417314 -1.98473e-09 7.32023e-08 -4.54874e-09 2.90554 0.965183 0.102902 -1.98473e-09 7.32023e-08 -4.54873e-09 10.2786 0.731801 0.0259123 -1.98474e-09 7.32023e-08 -4.54873e-09 2.22167 -0.733487 -0.20892 -1.98781e-13 -1.74921e-13 8.80865e-13 -39.9615 31.5362 -60.3314 27.1134 -26.7242 -62.0345 0.256323 -14.2666 2.04796 -2.20947e-09 2.53063e-08 7.74099e-10 -3.82215e-09 4.3739e-08 1.29974e-09 -2.20947e-09 2.53063e-08 7.74099e-10 -7.73091 5.47488 -0.417314 -2.20946e-09 2.53063e-08 7.74103e-10 -2.90554 0.965183 -0.102902 -2.20947e-09 2.53063e-08 7.741e-10 -10.2786 0.731801 -0.0259123 -2.20946e-09 2.53063e-08 7.74096e-10 -2.22167 -0.733487 0.20892 -2.03217e-16 0.0 -3.88251e-19 -3.63015 -27.5351 -4.98959 -0.116032 24.718 0.307085 -1.18599 2.97102 -20.6575 2.03217e-16 0.0 3.88251e-19 -0.728794 -59.2745 14.1619 1.50594 65.1814 -1.82737 -1.02376 -20.5708 -3.24882
6.87339 154.085 -13.7022 -180.779 -20.083 -165.567 -5.6974 10.4626 -6.26703 4.00718 -3.8704 -1.8837 -9.87774 -3.15856 1.71113 3.38061 21.2833 1.20878 -0.0 0.0 0.0 -0.0 0.0 0.0 -1.95577e-13 -7.64413e-14 8.47171e-13 65.6266 20.2872 15.625 -28.0411 -30.8623 68.6252 -0.154062 -11.1223 -1.58325 -2.43453e-09 7.43339e-08 -3.4918e-09 -4.17983e-09 1.28133e-07 -6.05093e-09 -2.43452e-09 7.43339e-08 -3.49181e-09 7.73091 5.47488 0.417314 -2.43453e-09 7.43338e-08 -3.4918e-09 2.90554 0.965183 0.102902 -2.43453e-09 7.43339e-08 -3.4918e-09 10.2786 0.731801 0.0259123 -2.43453e-09 7.43339e-08 -3.4918e-09 2.22167 -0.733487 -0.20892 -1.95646e-13 -7.64244e-14 8.46872e-13 -40.2709 31.8707 -59.9643 27.0885 -26.6382 -61.8986 0.249761 -14.089 2.02138 -1.97274e-09 2.28976e-08 6.06299e-10 -3.41166e-09 3.95629e-08 1.01053e-09 -1.97274e-09 2.28976e-08 6.063e-10 -7.73091 5.47488 -0.417314 -1.97274e-09 2.28976e-08 6.06301e-10 -2.90554 0.965183 -0.102902 -1.97274e-09 2.28976e-08 6.06299e-10 -10.2786 0.731801 -0.0259123 -1.97273e-09 2.28977e-08 6.06294e-10 -2.22167 -0.733487 0.20892 -2.03217e-16 0.0 -3.88251e-19 -3.7574 -27.842 -5.24846 -0.131554 25.8039 0.315253 -1.06775 3.29749 -19.2488 2.03217e-16 0.0 3.88251e-19 -0.98391 -58.6979 13.9394 1.44435 64.551 -1.77252 -0.860169 -20.6101 -2.91741
